HIERARCHY
ROOT Hips
{
 OFFSET 0.000000 0.000000 0.000000
 CHANNELS 6 Xposition Yposition Zposition Yrotation Xrotation Zrotation
 JOINT Chest
 {
  OFFSET 0.000000 9.585900 0.002600
  CHANNELS 3 Yrotation Xrotation Zrotation
  JOINT Chest2
  {
   OFFSET 0.000000 9.601200 -0.005300
   CHANNELS 3 Yrotation Xrotation Zrotation
   JOINT Chest3
   {
    OFFSET 0.000000 9.561800 0.000000
    CHANNELS 3 Yrotation Xrotation Zrotation
    JOINT Chest4
    {
     OFFSET 0.000000 9.552100 0.000000
     CHANNELS 3 Yrotation Xrotation Zrotation
     JOINT Neck
     {
      OFFSET 0.000000 14.453000 0.000000
      CHANNELS 3 Yrotation Xrotation Zrotation
      JOINT Head
      {
       OFFSET 0.000000 8.936500 -0.011300
       CHANNELS 3 Yrotation Xrotation Zrotation
       End Site
       {
        OFFSET 0.000000 17.073600 -0.006000
       }
      }
     }
     JOINT RightCollar
     {
      OFFSET -2.921100 9.558500 0.000000
      CHANNELS 3 Yrotation Xrotation Zrotation
      JOINT RightShoulder
      {
       OFFSET -13.519700 0.000000 0.000000
       CHANNELS 3 Yrotation Xrotation Zrotation
       JOINT RightElbow
       {
        OFFSET 0.000000 -29.696600 0.000000
        CHANNELS 3 Yrotation Xrotation Zrotation
        JOINT RightWrist
        {
         OFFSET 0.000000 -24.004700 0.000000
         CHANNELS 3 Yrotation Xrotation Zrotation
         End Site
         {
          OFFSET 0.000000 -17.728500 0.000000
         }
        }
       }
      }
     }
     JOINT LeftCollar
     {
      OFFSET 2.921100 9.558500 0.000000
      CHANNELS 3 Yrotation Xrotation Zrotation
      JOINT LeftShoulder
      {
       OFFSET 13.519700 0.000000 0.000000
       CHANNELS 3 Yrotation Xrotation Zrotation
       JOINT LeftElbow
       {
        OFFSET 0.000000 -29.696600 0.000000
        CHANNELS 3 Yrotation Xrotation Zrotation
        JOINT LeftWrist
        {
         OFFSET 0.000000 -24.004700 0.000000
         CHANNELS 3 Yrotation Xrotation Zrotation
         End Site
         {
          OFFSET 0.000000 -17.728500 0.000000
         }
        }
       }
      }
     }
    }
   }
  }
 }
 JOINT RightHip
 {
  OFFSET -7.771700 -0.012900 -0.001300
  CHANNELS 3 Yrotation Xrotation Zrotation
  JOINT RightKnee
  {
   OFFSET 0.000000 -40.869800 0.001200
   CHANNELS 3 Yrotation Xrotation Zrotation
   JOINT RightAnkle
   {
    OFFSET 0.000000 -39.717900 0.002100
    CHANNELS 3 Yrotation Xrotation Zrotation
    JOINT RightToe
    {
     OFFSET 0.000000 -4.965400 11.033500
     CHANNELS 3 Yrotation Xrotation Zrotation
     End Site
     {
      OFFSET 0.000000 -1.423100 5.872300
     }
    }
   }
  }
 }
 JOINT LeftHip
 {
  OFFSET 7.771700 -0.012900 -0.001300
  CHANNELS 3 Yrotation Xrotation Zrotation
  JOINT LeftKnee
  {
   OFFSET 0.000000 -40.869800 0.001200
   CHANNELS 3 Yrotation Xrotation Zrotation
   JOINT LeftAnkle
   {
    OFFSET 0.000000 -39.717900 0.002100
    CHANNELS 3 Yrotation Xrotation Zrotation
    JOINT LeftToe
    {
     OFFSET 0.000000 -4.965400 11.033500
     CHANNELS 3 Yrotation Xrotation Zrotation
     End Site
     {
      OFFSET 0.000000 -1.423100 5.872300
     }
    }
   }
  }
 }
}
MOTION
Frames: 13
Frame Time: 0.008333
0.000000 85.388000 0.000000 0.000000 -5.767877 0.000000 0.000000 11.653817 0.000000 0.000000 -5.885947 0.000000 0.000000 -0.000000 0.000000 0.000000 -0.000000 0.000000 0.000000 12.528835 0.000000 0.000000 0.711642 0.000000 0.000000 -0.000000 0.000000 0.000000 0.000000 -90.000000 0.000000 -2.309062 0.000000 0.000000 2.309062 0.000000 0.000000 -0.000000 0.000000 0.000000 -0.000000 90.000000 0.000000 -2.309062 0.000000 0.000000 2.309062 0.000000 0.000000 8.520406 0.000000 0.000000 1.905762 0.000000 -0.000000 -4.658285 0.000000 0.000000 -0.000000 0.000000 0.000000 8.520406 0.000000 0.000000 1.905762 0.000000 -0.000000 -4.658285 0.000000 0.000000 -0.000000 0.000000
-51.766360 55.007281 45.869425 -179.376140 -30.216237 -10.962335 -0.105288 15.380203 6.403375 -0.175942 8.890759 2.762577 -0.149737 11.123131 3.449026 -0.172887 8.887557 2.763386 -3.994178 28.681985 -0.091505 -4.400499 6.159813 0.804028 2.052739 1.790149 -4.804429 -6.565885 -33.126863 -4.689964 169.372886 -62.844102 -147.028174 11.862918 -14.113809 -16.021757 -11.141346 4.859429 -2.252310 5.360285 -8.174235 1.001296 -94.940685 -74.720349 99.415940 17.400812 -19.921555 -7.566790 -16.312426 -36.686089 5.368116 8.332191 87.244485 4.497651 0.940358 -17.393008 3.158948 -0.062129 0.480271 -0.021477 -15.175352 -47.874677 15.474313 171.102788 78.923257 166.246012 -1.079025 -17.006169 2.175922 -0.601805 -2.255489 -0.267783
-51.767370 55.008666 45.867260 -179.376532 -30.204761 -10.960113 -0.101010 15.374251 6.395435 -0.173958 8.884927 2.764961 -0.155504 11.119524 3.459097 -0.172122 8.884078 2.764187 -3.923050 28.527728 -0.057072 -4.333439 5.969877 0.824015 2.041466 1.744599 -4.760692 -6.643961 -32.821850 -4.648221 169.753460 -63.156465 -147.334348 11.924705 -13.998377 -15.994118 -11.095049 4.764449 -2.273053 5.324992 -8.065775 1.026794 -94.752105 -74.784630 99.203498 17.374663 -19.962569 -7.549288 -16.335292 -36.692644 5.373407 8.417488 87.242480 4.575607 0.939069 -17.399600 3.151798 -0.061329 0.482725 -0.022342 -15.167026 -47.871074 15.490393 171.354598 78.945647 166.478631 -1.074365 -17.045273 2.209429 -0.590213 -2.218585 -0.272836
-51.766459 55.009831 45.866112 -179.373960 -30.180536 -10.969028 -0.101548 15.353151 6.400796 -0.170925 8.879007 2.766745 -0.157670 11.111454 3.466107 -0.174543 8.885652 2.764999 -3.851314 28.354726 -0.031556 -4.269732 5.765041 0.838008 2.033720 1.724548 -4.741853 -6.764035 -32.535416 -4.559362 170.129595 -63.503092 -147.618776 11.998488 -13.848999 -15.942449 -11.049978 4.680336 -2.293546 5.322828 -7.951815 1.037415 -94.652433 -74.816665 99.050551 17.348859 -20.021852 -7.543177 -16.368591 -36.708294 5.382090 8.744258 87.237394 4.888215 1.017679 -17.401516 3.131012 -0.038086 0.479552 -0.024991 -15.182205 -47.885058 15.517993 171.460897 78.955429 166.578978 -1.077295 -17.066269 2.221712 -0.585149 -2.197987 -0.272353
-51.765507 55.011325 45.864171 -179.372948 -30.155932 -10.974454 -0.092631 15.333254 6.402994 -0.170184 8.865177 2.773221 -0.141634 11.075713 3.473991 -0.189632 8.899443 2.768134 -3.787538 28.180111 -0.012350 -4.206050 5.544234 0.844754 2.000875 1.661710 -4.701573 -6.872186 -32.193533 -4.488058 170.562697 -63.910724 -147.942031 12.056242 -13.663558 -15.837511 -11.011512 4.606044 -2.315704 5.304725 -7.846871 1.055277 -94.564508 -74.828654 98.922062 17.363595 -20.058203 -7.522413 -16.401266 -36.724215 5.394324 8.903732 87.234047 5.041419 1.041273 -17.403775 3.117873 -0.017153 0.479017 -0.025876 -15.197109 -47.903097 15.538799 171.519721 78.959791 166.633698 -1.073732 -17.074391 2.228218 -0.593538 -2.190612 -0.271398
-51.764309 55.012469 45.862523 -179.368231 -30.122549 -10.979415 -0.086642 15.306195 6.404917 -0.165771 8.847132 2.779135 -0.139625 11.059341 3.480332 -0.193066 8.888449 2.773592 -3.720679 27.996768 -0.002168 -4.138578 5.308253 0.844637 1.961590 1.597944 -4.672342 -6.997667 -31.841476 -4.398278 171.102059 -64.393560 -148.357186 12.082032 -13.444015 -15.662045 -10.972561 4.528012 -2.340811 5.283688 -7.734991 1.072753 -94.434558 -74.843934 98.743224 17.373943 -20.141617 -7.405706 -16.440593 -36.747611 5.416341 8.925308 87.232346 5.059465 1.010174 -17.406038 3.118583 -0.058071 0.478820 -0.027711 -15.212184 -47.928794 15.559130 171.568148 78.967063 166.682408 -1.087189 -17.088785 2.234578 -0.586219 -2.176516 -0.267999
-51.765548 55.011414 45.863252 -179.352040 -30.062662 -10.970786 -0.108638 15.252818 6.387319 -0.154222 8.834901 2.782265 -0.134073 11.037721 3.486606 -0.161330 8.829802 2.784105 -3.684636 27.848419 0.001045 -4.062682 5.061603 0.838286 1.886808 1.595155 -4.654169 -7.145534 -31.499681 -4.287591 171.750511 -64.948552 -148.876610 12.060762 -13.196625 -15.407786 -10.971073 4.481120 -2.374441 5.269305 -7.618285 1.089816 -94.248350 -74.868708 98.489230 17.372418 -20.220296 -7.293795 -16.481537 -36.803261 5.418945 8.985913 87.235970 5.116249 0.987330 -17.413383 3.124574 -0.063628 0.481524 -0.032822 -15.218624 -47.981831 15.563015 171.668153 78.978823 166.783737 -1.129256 -17.128054 2.242381 -0.553278 -2.135651 -0.250955
-51.762790 55.012614 45.861088 -179.352079 -30.021678 -10.973891 -0.107154 15.216380 6.390192 -0.141668 8.820975 2.786083 -0.128583 11.013825 3.492380 -0.156943 8.810706 2.788624 -3.608590 27.652762 0.004053 -3.975796 4.805540 0.824688 1.842346 1.554471 -4.642334 -7.308695 -31.150503 -4.165863 172.488471 -65.557620 -149.486233 11.988087 -12.927925 -15.080677 -10.936568 4.383189 -2.402540 5.227506 -7.485479 1.117040 -94.154149 -74.877739 98.359882 17.389587 -20.243275 -7.194087 -16.504635 -36.835756 5.425471 9.018160 87.233169 5.159408 1.002837 -17.415977 3.109243 -0.056071 0.480035 -0.030993 -15.224992 -48.017491 15.584043 171.732899 78.984468 166.851694 -1.132862 -17.138692 2.250554 -0.551104 -2.126523 -0.249641
-51.760185 55.014310 45.857536 -179.347220 -29.982518 -10.973743 -0.103484 15.188023 6.389904 -0.139799 8.801779 2.788520 -0.131509 11.004319 3.496010 -0.139662 8.771581 2.789924 -3.523582 27.447106 0.001812 -3.877665 4.537001 0.803308 1.798125 1.520987 -4.633531 -7.487586 -30.793287 -4.032670 173.316524 -66.205249 -150.188866 11.887071 -12.642532 -14.697338 -10.898098 4.272498 -2.433812 5.192433 -7.342155 1.144900 -93.948996 -74.927391 98.082846 17.377723 -20.292023 -7.075332 -16.539099 -36.864919 5.437156 9.166137 87.233569 5.306060 0.986450 -17.422902 3.109208 -0.058497 0.480184 -0.035116 -15.230553 -48.051899 15.597247 171.798573 78.989436 166.915495 -1.127954 -17.144536 2.266126 -0.556939 -2.122999 -0.254841
-51.756671 55.015861 45.854150 -179.334777 -29.933947 -10.977950 -0.083443 15.152020 6.392268 -0.151576 8.772994 2.794290 -0.143437 10.999274 3.501023 -0.129675 8.745160 2.789942 -3.421623 27.210694 -0.008027 -3.767961 4.253536 0.773559 1.762469 1.476727 -4.628396 -7.674346 -30.421134 -3.896793 174.257081 -66.881952 -151.009566 11.790154 -12.342918 -14.287292 -10.847944 4.129124 -2.464886 5.148694 -7.179828 1.175117 -93.731560 -74.985092 97.785852 17.369725 -20.342693 -6.946121 -16.584022 -36.901159 5.448121 9.418353 87.232643 5.561816 0.970123 -17.431171 3.112795 -0.058399 0.479779 -0.042601 -15.256592 -48.095079 15.613388 171.824668 78.992243 166.944254 -1.123708 -17.146486 2.269636 -0.559142 -2.121071 -0.257459
-51.753942 55.017368 45.850148 -179.317101 -29.880299 -10.975066 -0.105469 15.103526 6.381192 -0.124577 8.748733 2.794260 -0.147430 10.979716 3.505859 -0.127437 8.707807 2.790817 -3.318852 26.980474 -0.024006 -3.647125 3.954619 0.732999 1.717936 1.456749 -4.620190 -7.858535 -30.021058 -3.768903 175.336092 -67.576957 -151.971649 11.713840 -12.034983 -13.881466 -10.800963 3.994561 -2.497081 5.096989 -7.001899 1.200827 -93.515541 -75.027729 97.485172 17.378152 -20.398945 -6.805022 -16.646645 -36.944872 5.441439 9.737508 87.234831 5.889749 0.979370 -17.442063 3.084929 -0.060722 0.480429 -0.042502 -15.267709 -48.139401 15.615090 171.880230 79.004265 167.004673 -1.132000 -17.165920 2.275439 -0.547148 -2.100419 -0.252250
-51.751132 55.018683 45.846105 -179.302747 -29.818997 -10.966144 -0.107353 15.051059 6.368178 -0.121071 8.716519 2.799696 -0.147750 10.951465 3.504879 -0.114771 8.646595 2.795010 -3.218186 26.755615 -0.049523 -3.517583 3.639475 0.678527 1.659398 1.458413 -4.611770 -8.035424 -29.585886 -3.653319 176.589304 -68.282546 -153.105988 11.658250 -11.729823 -13.487384 -10.757865 3.873181 -2.533728 5.036432 -6.809031 1.220289 -93.335391 -75.032215 97.244249 17.425105 -20.454769 -6.667160 -16.686723 -36.999731 5.438709 9.950056 87.240838 6.105538 0.982602 -17.453319 3.071295 -0.063788 0.480168 -0.039130 -15.255375 -48.193107 15.606423 171.932012 79.018241 167.068445 -1.150379 -17.191053 2.286793 -0.535589 -2.074660 -0.247354
-51.747070 55.020412 45.841382 -179.292157 -29.754939 -10.958271 -0.103471 14.994627 6.360822 -0.117448 8.678129 2.808500 -0.123221 10.860058 3.508233 -0.158901 8.713777 2.799538 -3.079141 26.441969 -0.085256 -3.381520 3.309506 0.609532 1.623880 1.386547 -4.611317 -8.213008 -29.117959 -3.545771 178.069177 -68.994869 -154.453850 11.616368 -11.434790 -13.100051 -10.681828 3.674323 -2.563343 4.965561 -6.602500 1.235477 -92.979173 -75.067680 96.760938 17.411317 -20.609755 -6.434292 -16.727214 -37.056960 5.444342 10.155084 87.247655 6.314214 0.975155 -17.462550 3.062360 -0.049072 0.478577 -0.039094 -15.266530 -48.249147 15.612321 171.984361 79.027399 167.122909 -1.150688 -17.205895 2.293949 -0.535628 -2.061284 -0.247536
